<svg aria-hidden="true" style="position: absolute; width: 0; height: 0; overflow: hidden;" version="1.1" xmlns="http://www.w3.org/2000/svg" xmlns:xlink="http://www.w3.org/1999/xlink">
<defs>
<symbol id="icon-rectangle2400" viewBox="0 0 32 32">
<path fill="#2173d2" style="fill: var(--color1, #2173d2)" d="M16 0c8.837 0 16 7.163 16 16s-7.163 16-16 16c-8.837 0-16-7.163-16-16s7.163-16 16-16z"></path>
</symbol>
<symbol id="icon-rectangle2401" viewBox="0 0 32 32">
<path fill="#2d9bdb" style="fill: var(--color2, #2d9bdb)" d="M16 0c8.837 0 16 7.163 16 16s-7.163 16-16 16c-8.837 0-16-7.163-16-16s7.163-16 16-16z"></path>
</symbol>
<symbol id="icon-rectangle2402" viewBox="0 0 32 32">
<path fill="#fcac1f" style="fill: var(--color3, #fcac1f)" d="M16 0c8.837 0 16 7.163 16 16s-7.163 16-16 16c-8.837 0-16-7.163-16-16s7.163-16 16-16z"></path>
</symbol>
<symbol id="icon-rectangle2403" viewBox="0 0 32 32">
<path fill="#ec6a32" style="fill: var(--color4, #ec6a32)" d="M16 0c8.837 0 16 7.163 16 16s-7.163 16-16 16c-8.837 0-16-7.163-16-16s7.163-16 16-16z"></path>
</symbol>
<symbol id="icon-next" viewBox="0 0 32 32">
<path d="M24.339 14.858l-14.39-14.385c-0.631-0.63-1.654-0.63-2.287 0-0.631 0.63-0.631 1.653 0 2.283l13.249 13.244-13.247 13.244c-0.631 0.63-0.631 1.653 0 2.284 0.631 0.63 1.656 0.63 2.287 0l14.39-14.385c0.622-0.623 0.622-1.662-0.002-2.284z"></path>
</symbol>
<symbol id="icon-menu" viewBox="0 0 32 32">
<path fill="#fff" style="fill: var(--color5, #fff)" d="M4 24h24v-2.667h-24v2.667zM4 17.333h24v-2.667h-24v2.667zM4 8v2.667h24v-2.667h-24z"></path>
</symbol>
<symbol id="icon-Vector3" viewBox="0 0 32 32">
<path d="M15.462 0.252l-0.505 0.507c-0.335 0.336-0.335 0.881 0 1.217l12.75 12.804h-26.849c-0.473 0-0.857 0.385-0.857 0.861v0.717c0 0.475 0.384 0.861 0.857 0.861h26.849l-12.749 12.804c-0.335 0.336-0.335 0.881 0 1.217l0.505 0.507c0.335 0.336 0.877 0.336 1.212 0l15.075-15.139c0.335-0.336 0.335-0.881 0-1.217l-15.075-15.139c-0.335-0.336-0.877-0.336-1.212 0z"></path>
</symbol>
<symbol id="icon-lightning1" viewBox="0 0 32 32">
<path fill="#ffce00" style="fill: var(--color6, #ffce00)" d="M26.441 12.686c-0.116-0.207-0.285-0.38-0.489-0.5s-0.438-0.183-0.675-0.184h-7.973l1.366-10.433c0.040-0.303-0.026-0.61-0.185-0.87s-0.403-0.458-0.691-0.56c-0.288-0.102-0.602-0.102-0.89-0.001s-0.532 0.299-0.692 0.559l-10.621 17.274c-0.124 0.202-0.192 0.434-0.197 0.671s0.053 0.471 0.169 0.678c0.116 0.207 0.285 0.379 0.489 0.499s0.437 0.183 0.675 0.183h7.842l-1.227 10.45c-0.035 0.302 0.033 0.607 0.194 0.864s0.406 0.452 0.693 0.551c0.287 0.1 0.599 0.098 0.885-0.004s0.529-0.299 0.688-0.558l10.612-17.272c0.124-0.202 0.192-0.433 0.197-0.671s-0.053-0.471-0.169-0.678z"></path>
</symbol>
<symbol id="icon-Vector2" viewBox="0 0 42 32">
<path d="M24.281 2.081h-20.829c-1.907 0-3.452 1.546-3.452 3.452v20.829c0 1.907 1.546 3.452 3.452 3.452h20.829c1.907 0 3.452-1.546 3.452-3.452v-20.829c0-1.907-1.546-3.452-3.452-3.452zM37.96 4.804l-7.916 5.46v11.368l7.916 5.453c1.531 1.054 3.64-0.022 3.64-1.863v-18.554c0-1.834-2.102-2.918-3.64-1.863z"></path>
</symbol>
<symbol id="icon-comment-24" viewBox="0 0 32 32">
<path fill="#fff" style="fill: var(--color5, #fff)" opacity="0.54" d="M25.75 3h-19.5c-1.793 0-3.25 1.457-3.25 3.25v14.625c0 1.793 1.457 3.25 3.25 3.25h4.875v4.266c0 0.361 0.295 0.609 0.609 0.609 0.122 0 0.249-0.036 0.361-0.122l6.343-4.753h7.313c1.793 0 3.25-1.457 3.25-3.25v-14.625c0-1.793-1.457-3.25-3.25-3.25zM26.562 20.875c0 0.447-0.366 0.813-0.812 0.813h-8.125l-4.063 3.047v-3.047h-7.313c-0.447 0-0.813-0.366-0.813-0.813v-14.625c0-0.447 0.366-0.813 0.813-0.813h19.5c0.447 0 0.812 0.366 0.812 0.813v14.625zM21.688 9.906h-11.375c-0.447 0-0.813 0.366-0.813 0.813v0.812c0 0.447 0.366 0.813 0.813 0.813h11.375c0.447 0 0.812-0.366 0.812-0.813v-0.812c0-0.447-0.366-0.813-0.812-0.813zM16.813 14.781h-6.5c-0.447 0-0.813 0.366-0.813 0.813v0.812c0 0.447 0.366 0.813 0.813 0.813h6.5c0.447 0 0.813-0.366 0.813-0.813v-0.812c0-0.447-0.366-0.813-0.813-0.813z"></path>
</symbol>
<symbol id="icon-Group112" viewBox="0 0 32 32">
<path fill="#000" style="fill: var(--color7, #000)" opacity="0.54" d="M16 0c8.837 0 16 7.163 16 16s-7.163 16-16 16c-8.837 0-16-7.163-16-16s7.163-16 16-16z"></path>
<path fill="#fff" style="fill: var(--color5, #fff)" d="M22.4 12c-0.155 0-0.313 0.045-0.455 0.142l-2.743 1.748v-1.495c0-0.66-0.58-1.195-1.295-1.195h-7.811c-0.715 0-1.295 0.535-1.295 1.195v7.211c0 0.66 0.58 1.195 1.295 1.195h7.811c0.715 0 1.295-0.535 1.295-1.195v-1.495l2.74 1.748c0.143 0.1 0.303 0.143 0.455 0.143 0.415 0 0.803-0.325 0.803-0.788v-6.426c0.002-0.463-0.385-0.788-0.8-0.788zM18.402 19.606c0 0.215-0.228 0.395-0.495 0.395h-7.811c-0.268 0-0.495-0.18-0.495-0.395v-7.211c0-0.215 0.228-0.395 0.495-0.395h7.811c0.268 0 0.495 0.18 0.495 0.395v7.211zM22.402 19.214l-0.030-0.033-3.171-2.020v-2.323l3.201-2.038v6.414z"></path>
</symbol>
<symbol id="icon-star_border_black_24dp" viewBox="0 0 32 32">
<path fill="#fff" style="fill: var(--color5, #fff)" d="M28.238 11.264l-7.744-0.672-3.024-7.12c-0.544-1.296-2.4-1.296-2.944 0l-3.024 7.136-7.728 0.656c-1.408 0.112-1.984 1.872-0.912 2.8l5.872 5.088-1.76 7.552c-0.32 1.376 1.168 2.464 2.384 1.728l6.64-4 6.64 4.016c1.216 0.736 2.704-0.352 2.384-1.728l-1.76-7.568 5.872-5.088c1.072-0.928 0.512-2.688-0.896-2.8zM15.998 21.44l-6.016 3.632 1.6-6.848-5.312-4.608 7.008-0.608 2.72-6.448 2.736 6.464 7.008 0.608-5.312 4.608 1.6 6.848-6.032-3.648z"></path>
</symbol>
<symbol id="icon-notifications_black_24dp" viewBox="0 0 32 32">
<path fill="#fff" style="fill: var(--color5, #fff)" d="M15.996 29.335c1.467 0 2.667-1.2 2.667-2.667h-5.333c0 1.467 1.2 2.667 2.667 2.667zM23.996 21.335v-6.667c0-4.093-2.173-7.52-6-8.427v-0.907c0-1.107-0.893-2-2-2s-2 0.893-2 2v0.907c-3.813 0.907-6 4.32-6 8.427v6.667l-2.667 2.667v1.333h21.333v-1.333l-2.667-2.667zM21.33 22.669h-10.667v-8c0-3.307 2.013-6 5.333-6s5.333 2.693 5.333 6v8z"></path>
</symbol>
<symbol id="icon-comment-24px" viewBox="0 0 32 32">
<path fill="#fff" style="fill: var(--color5, #fff)" d="M28.409 26.518l-6.311-6.337c1.623-1.862 2.512-4.205 2.512-6.645 0-5.699-4.803-10.336-10.706-10.336s-10.706 4.637-10.706 10.336 4.803 10.336 10.706 10.336c2.216 0 4.328-0.645 6.133-1.87l6.359 6.385c0.266 0.267 0.623 0.413 1.006 0.413 0.363 0 0.707-0.133 0.968-0.376 0.555-0.515 0.573-1.37 0.039-1.906zM13.904 5.897c4.363 0 7.913 3.427 7.913 7.64s-3.55 7.64-7.913 7.64-7.913-3.427-7.913-7.64c0-4.213 3.55-7.64 7.913-7.64z"></path>
</symbol>
<symbol id="icon-Logo_white" viewBox="0 0 99 32">
<path fill="#3bb8ff" style="fill: var(--color8, #3bb8ff)" d="M20.873 9.81l-3.953 3.019c-0.726-1.784-2.436-2.692-5.144-2.718-2.646-0.023-4.039 0.591-4.171 1.848-0.089 0.858 1.028 1.487 3.352 1.89 3.499 0.576 5.633 1.032 6.398 1.355 2.27 0.907 3.294 2.391 3.077 4.454-0.229 2.165-1.389 3.851-3.484 5.056-1.878 1.084-4.159 1.622-6.84 1.622-4.675 0-8.043-1.156-10.107-3.471l4.213-2.677c1.059 1.585 3.057 2.376 5.994 2.376 1.168 0 2.204-0.237 3.112-0.715 0.815-0.456 1.253-0.956 1.311-1.51 0.089-0.832-1.001-1.449-3.267-1.848-3.383-0.632-5.486-1.107-6.304-1.434-2.211-0.934-3.208-2.44-2.987-4.529 0.217-2.063 1.311-3.637 3.278-4.717 1.785-0.983 4.101-1.472 6.952-1.472 3.849 0 6.704 1.156 8.57 3.471z"></path>
<path fill="#fff" style="fill: var(--color5, #fff)" d="M20.572 6.29l-1.059 9.585c-0.019 0.154-0.039 0.309-0.054 0.463l-0.031 0.316-1.695 15.345h5.486l0.749-6.776c1.498 0.745 3.306 1.114 5.42 1.114 3.391 0 6.188-0.956 8.396-2.865 2.114-1.837 3.325-4.217 3.627-7.134 0.306-2.918-0.407-5.293-2.134-7.13-1.808-1.912-4.403-2.869-7.798-2.869-2.076 0-4.535 0.452-5.649 1.961l0.229-2.010h-5.486zM25.317 17.302l0.213-2.010c0.272-1.133 0.791-2.119 1.564-2.951 1.094-1.182 2.479-1.773 4.155-1.773 1.68 0 2.945 0.591 3.802 1.773 0.784 1.080 1.094 2.413 0.935 3.998s-0.737 2.918-1.738 4.002c-1.094 1.182-2.479 1.773-4.159 1.773-1.676 0-2.941-0.591-3.798-1.773-0.621-0.855-0.943-1.871-0.974-3.038z"></path>
<path fill="#ff4122" style="fill: var(--color9, #ff4122)" d="M50.967 10.567c-1.75 0-3.197 0.591-4.337 1.773-1.044 1.080-1.649 2.413-1.816 3.998s0.159 2.918 0.982 4.002c0.892 1.182 2.215 1.773 3.965 1.773 1.754 0 3.201-0.591 4.341-1.773 1.044-1.084 1.649-2.417 1.816-4.002s-0.163-2.918-0.982-3.998c-0.892-1.182-2.215-1.773-3.969-1.773zM51.41 6.339c3.391 0 5.99 0.956 7.798 2.869 1.727 1.837 2.44 4.213 2.134 7.13-0.303 2.918-1.513 5.297-3.627 7.134-2.204 1.909-5.005 2.865-8.396 2.865s-5.986-0.956-7.794-2.865c-1.727-1.837-2.44-4.216-2.134-7.134 0.303-2.918 1.536-5.312 3.697-7.187 2.157-1.875 4.935-2.812 8.322-2.812z"></path>
<path fill="#f3d91b" style="fill: var(--color10, #f3d91b)" d="M58.438 25.886h5.486l1.020-9.246c0.213-1.935 0.594-3.87 2.118-4.849 0.985-0.629 2.052-1.431 3.775-1.675l0.365-3.332c-2.293 0.177-4.741 0.768-5.338 1.547l0.171-1.54h-5.486l-2.111 19.095z"></path>
<path fill="#fff" style="fill: var(--color5, #fff)" d="M99.413 8.78l-0.365 3.226c-0.046 0.44-0.008 0.783 0.124 1.028h-1.618c-0.085-0.147-0.112-0.331-0.089-0.557-0.656 0.467-1.37 0.7-2.149 0.7-0.621 0-1.114-0.177-1.486-0.527-0.369-0.35-0.524-0.813-0.458-1.393 0.116-1.032 0.834-1.668 2.149-1.909l0.652-0.12c0.438-0.079 1.005-0.2 1.699-0.361l0.019-0.181c0.058-0.516-0.314-0.772-1.117-0.772-0.442 0-0.76 0.068-0.947 0.203s-0.299 0.373-0.338 0.712l-1.525-0.060c0.078-0.666 0.411-1.178 1.001-1.532 0.52-0.305 1.164-0.459 1.936-0.459 0.826 0 1.443 0.117 1.843 0.35 0.535 0.312 0.757 0.866 0.667 1.653zM97.647 10.846l0.101-0.87c-0.178 0.079-0.427 0.154-0.753 0.218l-0.861 0.169c-0.361 0.072-0.617 0.154-0.768 0.252-0.225 0.128-0.353 0.328-0.38 0.591-0.027 0.226 0.047 0.41 0.221 0.55 0.171 0.143 0.4 0.211 0.683 0.211 0.411 0 0.78-0.087 1.11-0.264 0.392-0.211 0.609-0.497 0.648-0.858z"></path>
<path fill="#fff" style="fill: var(--color5, #fff)" d="M92.746 6.924l-0.687 6.11h-1.532l0.070-0.606c-0.462 0.501-1.098 0.749-1.917 0.749-0.656 0-1.168-0.143-1.529-0.433-0.462-0.38-0.648-0.971-0.559-1.777l0.458-4.043h1.529l-0.407 3.622c-0.089 0.806 0.241 1.208 0.993 1.208 0.528 0 0.943-0.166 1.249-0.497 0.24-0.275 0.384-0.625 0.431-1.050l0.372-3.283h1.529z"></path>
<path fill="#25bb1e" style="fill: var(--color11, #25bb1e)" d="M81 10.128l0.369-3.336h3.282l-0.369 3.336h-3.282z"></path>
<path fill="#25bb1e" style="fill: var(--color11, #25bb1e)" d="M74.9 6.792c0.636-4.446 2.972-6.016 6.235-6.792l-2.184 19.772c-0.093 0.832-0.004 1.408 0.256 1.736 0.318 0.403 0.97 0.606 1.959 0.606l2.452-0.226-0.419 3.772c-1.769 0.301-3.24 0.452-4.411 0.452-4.015 0-5.854-1.532-5.517-4.604l1.261-11.396h-3.79l0.369-3.32h3.79z"></path>
</symbol>
<symbol id="icon-Frame9428" viewBox="0 0 32 32">
<path fill="#00b16d" style="fill: var(--color12, #00b16d)" d="M3.556 0h24.889c1.964 0 3.556 1.592 3.556 3.556v24.889c0 1.964-1.592 3.556-3.556 3.556h-24.889c-1.964 0-3.556-1.592-3.556-3.556v-24.889c0-1.964 1.592-3.556 3.556-3.556z"></path>
<path fill="#fff" style="fill: var(--color5, #fff)" d="M13.161 19.13l-3.698-3.698-1.991 1.991 5.689 5.689 11.378-11.378-1.991-1.991-9.387 9.387z"></path>
</symbol>
<symbol id="icon-Frame9425" viewBox="0 0 32 32">
<path fill="#f55333" style="fill: var(--color13, #f55333)" d="M3.556 0h24.889c1.964 0 3.556 1.592 3.556 3.556v24.889c0 1.964-1.592 3.556-3.556 3.556h-24.889c-1.964 0-3.556-1.592-3.556-3.556v-24.889c0-1.964 1.592-3.556 3.556-3.556z"></path>
<path fill="#fff" style="fill: var(--color5, #fff)" d="M20.029 22.033l-4.023-4.023-4.023 4.023-2.011-2.011 4.023-4.023-4.023-4.023 2.011-2.011 4.023 4.023 4.023-4.023 2.011 2.011-4.023 4.023 4.023 4.023-2.011 2.011z"></path>
</symbol>
<symbol id="icon-Frame9401" viewBox="0 0 32 32">
<path fill="#f2d927" style="fill: var(--color14, #f2d927)" d="M3.556 0h24.889c1.964 0 3.556 1.592 3.556 3.556v24.889c0 1.964-1.592 3.556-3.556 3.556h-24.889c-1.964 0-3.556-1.592-3.556-3.556v-24.889c0-1.964 1.592-3.556 3.556-3.556z"></path>
<path fill="#fff" style="fill: var(--color5, #fff)" d="M10.667 11.556h10.667v3.556h-10.667v-3.556z"></path>
<path fill="#fff" style="fill: var(--color5, #fff)" d="M10.667 17.778h10.667v3.556h-10.667v-3.556z"></path>
</symbol>
<symbol id="icon-radio_button_checked_black_24dp-2-1" viewBox="0 0 32 32">
<path fill="#fff" style="fill: var(--color5, #fff)" opacity="0.3" d="M16 3.636c-6.825 0-12.364 5.539-12.364 12.364s5.539 12.364 12.364 12.364c6.825 0 12.364-5.539 12.364-12.364s-5.539-12.364-12.364-12.364zM16 25.891c-5.465 0-9.891-4.426-9.891-9.891s4.426-9.891 9.891-9.891c5.465 0 9.891 4.426 9.891 9.891s-4.426 9.891-9.891 9.891z"></path>
<path fill="#fff" style="fill: var(--color5, #fff)" d="M15.997 21.395c2.979 0 5.395-2.415 5.395-5.395s-2.415-5.395-5.395-5.395c-2.98 0-5.395 2.415-5.395 5.395s2.415 5.395 5.395 5.395z"></path>
</symbol>
</defs>
</svg>
